<svg width="369" height="102" viewBox="0 0 369 102" fill="none" xmlns="http://www.w3.org/2000/svg">
<g filter="url(#filter0_d)">
<path d="M121.277 46.1263H132.214C132.278 47.8717 132.052 49.4659 131.536 50.9088C131.025 52.3571 130.288 53.6 129.33 54.6374C128.373 55.675 127.227 56.4855 125.882 57.0585C124.537 57.6366 123.063 57.923 121.465 57.923C120.395 57.923 119.367 57.7933 118.378 57.5286C117.388 57.2639 116.468 56.8856 115.613 56.3937C114.758 55.9019 113.972 55.3185 113.262 54.6374C112.557 53.9567 111.949 53.2 111.449 52.3678C110.954 51.5304 110.561 50.6331 110.287 49.6766C110.007 48.7148 109.867 47.7098 109.867 46.6669C109.867 45.6238 110.007 44.619 110.287 43.6567C110.561 42.7004 110.954 41.8036 111.449 40.9655C111.949 40.1338 112.557 39.3771 113.262 38.6962C113.972 38.0155 114.758 37.4316 115.613 36.9453C116.468 36.4587 117.388 36.0863 118.378 35.8213C119.367 35.5564 120.395 35.427 121.465 35.427C123.085 35.427 124.602 35.7186 126.022 36.2967C127.442 36.8751 128.717 37.7396 129.852 38.8745L127.264 41.4897C126.942 41.1118 126.576 40.755 126.162 40.4306C125.753 40.1008 125.307 39.8199 124.817 39.5823C124.328 39.3445 123.8 39.1609 123.241 39.0256C122.676 38.8962 122.09 38.8312 121.466 38.8312C120.406 38.8312 119.411 39.031 118.48 39.4308C117.55 39.8308 116.737 40.3819 116.043 41.0844C115.355 41.787 114.806 42.6191 114.397 43.5809C113.994 44.5374 113.795 45.5751 113.795 46.6826C113.795 47.7906 113.994 48.8226 114.397 49.7791C114.806 50.7302 115.355 51.5623 116.043 52.2649C116.737 52.9619 117.55 53.5132 118.48 53.9185C119.411 54.3183 120.406 54.518 121.466 54.518C122.477 54.518 123.376 54.3886 124.172 54.1239C124.962 53.859 125.646 53.4861 126.21 53.0052C126.781 52.5243 127.238 51.9462 127.582 51.2705C127.926 50.5951 128.163 49.8493 128.293 49.0228H121.261L121.277 46.1261L121.277 46.1263ZM147.022 49.9793H142.482V57.4637H138.544V35.9345H147.807C148.888 35.9345 149.884 36.102 150.793 36.4428C151.702 36.7779 152.487 37.2587 153.149 37.8747C153.811 38.4907 154.327 39.231 154.693 40.0958C155.063 40.9655 155.247 41.9166 155.247 42.9651C155.247 43.7435 155.145 44.4784 154.946 45.1591C154.747 45.8402 154.462 46.4509 154.09 47.002C153.714 47.5478 153.262 48.0287 152.735 48.4394C152.202 48.8556 151.611 49.185 150.96 49.439L155.737 57.464H151.229L147.022 49.9796L147.022 49.9793ZM147.683 46.5749C148.2 46.5749 148.673 46.4883 149.115 46.3154C149.555 46.1373 149.942 45.894 150.266 45.5858C150.594 45.2723 150.852 44.8942 151.04 44.4513C151.228 44.008 151.325 43.5164 151.325 42.9813C151.325 42.4407 151.228 41.9492 151.04 41.5059C150.852 41.063 150.594 40.6792 150.266 40.3602C149.942 40.0359 149.55 39.7873 149.098 39.6094C148.646 39.4308 148.168 39.3388 147.651 39.3388H142.482V46.5746H147.683V46.5749ZM174.37 53.3622H164.487L162.803 57.4637H158.661L167.581 35.9024H171.298L180.217 57.4637H176.059L174.37 53.3622ZM165.875 49.9682H172.971L169.565 41.6516L169.437 41.1004H169.42L169.297 41.6516L165.875 49.9682H165.875ZM203.901 57.4635H200.528L188.865 42.7594V57.4635H184.928V35.9343H188.312L199.99 50.6386V35.9343H203.901V57.4635ZM218.973 54.0588C220.173 54.0588 221.232 53.8914 222.163 53.5617C223.093 53.2264 223.879 52.7455 224.514 52.1188C225.149 51.4919 225.627 50.7247 225.955 49.8222C226.278 48.9253 226.445 47.8986 226.445 46.7473C226.445 45.6397 226.289 44.629 225.988 43.7212C225.681 42.8134 225.218 42.0353 224.6 41.3869C223.981 40.7386 223.201 40.2361 222.265 39.8791C221.334 39.5174 220.232 39.3386 218.973 39.3386H214.653V54.0586H218.973V54.0588ZM210.715 35.9343H219.037C220.668 35.9343 222.174 36.1667 223.562 36.6371C224.944 37.1073 226.144 37.7989 227.155 38.7119C228.161 39.6251 228.952 40.7491 229.522 42.0838C230.098 43.4185 230.383 44.9536 230.383 46.6824C230.383 48.2875 230.135 49.7518 229.64 51.0757C229.151 52.3995 228.419 53.5346 227.462 54.4804C226.499 55.4258 225.315 56.1555 223.917 56.6796C222.513 57.204 220.904 57.4635 219.102 57.4635H210.715V35.9343ZM240.274 50.4274V57.4633H236.337V35.9341H245.379C246.461 35.9341 247.456 36.1179 248.365 36.4799C249.274 36.8419 250.06 37.3501 250.721 37.9934C251.383 38.6363 251.899 39.4037 252.265 40.2951C252.636 41.1869 252.819 42.1539 252.819 43.197C252.819 44.2616 252.636 45.2345 252.276 46.1154C251.916 46.9961 251.404 47.7583 250.748 48.4011C250.092 49.0442 249.312 49.5411 248.408 49.8978C247.504 50.2493 246.515 50.4277 245.444 50.4277H240.274L240.274 50.4274ZM245.24 47.023C245.756 47.023 246.234 46.9257 246.681 46.7311C247.128 46.5364 247.515 46.2662 247.838 45.9259C248.166 45.5798 248.424 45.1798 248.612 44.7153C248.801 44.2504 248.897 43.7479 248.897 43.213C248.897 42.6724 248.801 42.1699 248.612 41.6997C248.424 41.235 248.161 40.8245 247.832 40.4785C247.499 40.127 247.111 39.8518 246.665 39.6463C246.219 39.4411 245.74 39.3381 245.223 39.3381H240.274V47.0225H245.24V47.023ZM258.418 35.9341H262.356V45.1153H273.168V35.9341H277.122V57.4633H273.168V48.5037H262.356V57.4633H258.418V35.9341ZM297.503 53.3617H287.621L285.937 57.4633H281.795L290.715 35.902H294.432L303.351 57.4633H299.192L297.503 53.3617ZM289.009 49.9677H296.105L292.7 41.6512L292.571 41.0999H292.554L292.43 41.6512L289.01 49.9677H289.009ZM316.54 49.9787H312V57.463H308.062V35.9339H317.325C318.407 35.9339 319.402 36.1013 320.311 36.4421C321.22 36.7772 322.006 37.2581 322.667 37.874C323.329 38.49 323.845 39.2304 324.211 40.0951C324.582 40.9648 324.765 41.9159 324.765 42.9645C324.765 43.7429 324.663 44.4777 324.464 45.1584C324.265 45.8395 323.98 46.4503 323.608 47.0013C323.232 47.5471 322.78 48.028 322.253 48.4387C321.72 48.8549 321.129 49.1843 320.478 49.4383L325.255 57.4633H320.747L316.54 49.9789L316.54 49.9787ZM317.202 46.5742C317.718 46.5742 318.191 46.4876 318.633 46.3147C319.074 46.1366 319.461 45.8933 319.784 45.5851C320.112 45.2716 320.37 44.8935 320.559 44.4506C320.747 44.0073 320.844 43.5157 320.844 42.9806C320.844 42.4401 320.747 41.9485 320.559 41.5052C320.37 41.0623 320.112 40.6785 319.784 40.3596C319.461 40.0352 319.068 39.7866 318.616 39.6087C318.165 39.4301 317.686 39.3381 317.169 39.3381H312V46.574H317.202V46.5742ZM340.606 51.0974L334.253 42.3756V57.463H330.315V35.9339H333.747L341.139 45.8933L348.562 35.9339H352V57.463H348.073V42.4079L341.66 51.0974H340.606H340.606Z" fill="#2E4D98"/>
<path fill-rule="evenodd" clip-rule="evenodd" d="M31.0599 74.0858C30.2546 70.784 29.678 69.4288 30.4789 65.4622C30.7282 64.2275 31.1609 62.8548 31.6761 61.7727C32.041 61.005 32.9822 59.0102 33.451 58.5553C34.0588 56.7873 46.7747 35.4447 46.8343 35.4069C46.9901 34.854 54.2821 22.435 54.467 22.1163C56.9184 17.8915 59.848 14.9629 64.376 13.6248C64.9701 13.4494 65.9244 13.3544 66.4191 13.1009C58.6704 12.9107 50.8382 13.0506 43.0738 13.036C40.2102 13.0307 38.6769 13.0799 36.3961 14.1968C32.7886 15.963 31.3324 19.1964 29.3518 22.6922C27.4713 26.011 25.5811 29.1579 23.6494 32.5475C22.4932 34.5763 18.6672 40.9511 18.0005 42.4477C15.9267 47.1033 17.3768 50.6212 19.6182 54.4038L28.1451 69.1951C28.7472 70.2455 30.4045 73.434 31.0597 74.0855L31.0599 74.0858Z" fill="#41ADE1"/>
<path fill-rule="evenodd" clip-rule="evenodd" d="M54.0477 72.651L62.232 58.5071L33.4509 58.5554C32.9821 59.0103 32.0408 61.0054 31.6758 61.7728C31.1608 62.8549 30.7281 64.2278 30.4788 65.4623C29.6777 69.429 30.2545 70.7839 31.0598 74.0859C31.7315 75.8871 33.327 77.7259 34.4472 78.5747C35.6267 79.4686 38.0642 80.8345 40.1137 80.8105C46.1982 81.1299 51.2189 77.5188 54.0479 72.6507L54.0477 72.651Z" fill="#2F4C98"/>
<path fill-rule="evenodd" clip-rule="evenodd" d="M46.8345 35.4068L75.6155 35.3856C75.7977 34.3006 77.4874 32.3286 78.273 28.6446C79.3626 23.5346 78.0322 17.9623 73.8006 15.0754C72.8593 14.4332 71.8705 13.9264 70.6847 13.5599C68.9883 13.035 68.1485 13.2152 66.4192 13.1011C65.9245 13.3546 64.9703 13.4496 64.3761 13.625C59.8481 14.9631 56.9186 17.8917 54.4672 22.1165C54.2825 22.4352 46.9905 34.8542 46.8345 35.407V35.4068Z" fill="#126AA9"/>
<path fill-rule="evenodd" clip-rule="evenodd" d="M54.0477 72.6509L75.6153 35.3857C75.5098 35.8552 76.6091 37.4154 76.9756 38.1196L81.5577 46.3436C81.8322 46.8334 87.6413 57.1386 87.6283 57.3892C87.42 57.8922 87.1029 58.3986 86.8493 58.8255L81.1027 68.7507C80.0439 70.6551 79.0068 72.4053 77.8336 74.3806C76.4747 76.6677 75.9581 77.5584 73.6996 79.1484C71.7747 80.5032 69.4386 80.9884 66.626 80.9761C63.6612 80.9633 60.6959 80.9635 57.7313 80.9583C55.7926 80.9551 40.5083 81.1214 40.1135 80.8107C46.198 81.1301 51.2187 77.519 54.0477 72.6509Z" fill="#A0D6E2"/>
</g>
<defs>
<filter id="filter0_d" x="-0.00012207" y="0" width="369" height="102" filterUnits="userSpaceOnUse" color-interpolation-filters="sRGB">
<feFlood flood-opacity="0" result="BackgroundImageFix"/>
<feColorMatrix in="SourceAlpha" type="matrix" values="0 0 0 0 0 0 0 0 0 0 0 0 0 0 0 0 0 0 127 0"/>
<feOffset dy="4"/>
<feGaussianBlur stdDeviation="8.5"/>
<feColorMatrix type="matrix" values="0 0 0 0 1 0 0 0 0 1 0 0 0 0 1 0 0 0 0.42 0"/>
<feBlend mode="normal" in2="BackgroundImageFix" result="effect1_dropShadow"/>
<feBlend mode="normal" in="SourceGraphic" in2="effect1_dropShadow" result="shape"/>
</filter>
</defs>
</svg>
